<?xml version="1.0" standalone="no"?>
<!DOCTYPE svg PUBLIC "-//W3C//DTD SVG 20010904//EN"
 "http://www.w3.org/TR/2001/REC-SVG-20010904/DTD/svg10.dtd">
<svg version="1.0" xmlns="http://www.w3.org/2000/svg"
 width="264.000000pt" height="264.000000pt" viewBox="0 0 264.000000 264.000000"
 preserveAspectRatio="xMidYMid meet">
<metadata>
Created by potrace 1.14, written by Peter Selinger 2001-2017
</metadata>
<g transform="translate(0.000000,264.000000) scale(0.100000,-0.100000)"
fill="#000000" stroke="none">
<path d="M1335 2630 c-8 -3 -39 -5 -70 -5 -30 0 -55 -3 -55 -6 0 -4 -21 -10
-47 -14 -26 -4 -61 -14 -76 -22 -16 -8 -31 -12 -34 -9 -7 6 -159 -71 -200
-102 -18 -13 -33 -21 -33 -17 0 5 -11 -5 -25 -21 -14 -16 -25 -26 -25 -21 0 4
-20 -13 -45 -39 -25 -25 -45 -50 -45 -55 0 -6 -4 -7 -10 -4 -5 3 -10 2 -10 -3
0 -8 -11 -23 -50 -69 -5 -7 -10 -16 -10 -22 0 -5 -3 -11 -7 -13 -12 -5 -55
-88 -46 -88 4 0 3 -4 -3 -8 -14 -9 -57 -105 -43 -96 6 4 3 -5 -6 -19 -9 -14
-16 -27 -15 -29 3 -5 -12 -82 -18 -93 -3 -5 -7 -16 -8 -25 -2 -16 -11 -70 -17
-105 -3 -14 -16 -23 -43 -30 -21 -5 -42 -14 -46 -20 -8 -11 -6 -44 4 -60 8
-14 -6 -50 -20 -50 -16 0 -62 -58 -63 -80 -1 -11 -3 -31 -5 -45 -2 -14 -6 -62
-8 -106 -2 -45 -6 -87 -10 -93 -5 -7 -1 -8 11 -4 15 6 16 4 6 -8 -14 -18 -14
-58 1 -78 8 -11 8 -13 -1 -8 -6 4 -14 3 -18 -3 -3 -5 -2 -10 3 -10 6 0 8 -8 5
-19 -3 -10 0 -22 6 -25 5 -4 8 -13 4 -21 -3 -9 1 -15 11 -15 9 0 15 -3 15 -7
-1 -5 0 -10 1 -13 4 -12 9 -45 14 -112 5 -66 12 -113 16 -113 1 0 3 -9 5 -20
7 -41 11 -55 18 -61 4 -4 7 -16 7 -26 0 -10 5 -18 12 -18 6 0 8 -3 5 -6 -4 -4
0 -19 7 -33 8 -14 33 -64 56 -111 22 -47 52 -103 66 -125 13 -22 30 -51 37
-65 6 -14 16 -30 22 -37 5 -7 16 -19 23 -27 6 -8 12 -18 12 -21 0 -8 51 -65
89 -99 18 -17 41 -38 50 -46 23 -20 100 -60 117 -60 8 0 14 -3 14 -7 0 -5 16
-9 36 -11 20 -1 41 -5 48 -9 13 -9 24 -11 96 -18 112 -12 120 -12 120 -1 0 7
3 8 8 1 6 -10 23 -12 37 -5 3 1 10 4 15 5 6 1 12 4 15 5 3 1 14 4 25 5 11 1
23 4 28 5 4 2 12 4 17 5 69 13 363 173 348 189 -5 4 -3 6 4 4 17 -5 110 69
203 162 97 98 115 120 175 210 48 73 81 105 91 89 5 -9 39 -8 92 0 2 1 0 6 -4
13 -5 8 -2 9 12 4 10 -4 16 -4 12 -1 -3 4 2 15 13 26 11 11 18 23 15 28 -3 4
4 13 14 21 10 8 17 17 14 22 -3 4 0 8 5 8 6 0 10 3 9 8 -1 4 3 17 10 29 7 13
9 23 5 23 -4 0 -2 4 5 8 7 5 14 18 17 30 2 11 8 29 14 40 6 11 7 22 4 26 -3 3
-1 6 5 6 7 0 11 3 10 8 -1 4 2 18 6 32 13 51 13 129 -2 160 -8 16 -18 27 -23
24 -5 -3 -9 0 -9 6 0 7 -10 9 -27 6 -72 -16 -71 -16 -75 15 -3 16 -2 32 1 35
3 3 6 15 7 27 2 12 8 51 14 87 18 100 21 120 25 185 2 33 5 62 6 65 1 5 -2
173 -5 228 -1 12 -4 22 -7 22 -3 0 -5 10 -4 23 1 12 -1 27 -5 32 -4 6 -12 31
-19 57 -6 26 -20 63 -32 82 -12 20 -18 36 -15 36 8 0 -44 83 -58 92 -6 4 -8 8
-4 8 7 0 -17 32 -49 66 -7 7 -13 17 -13 23 0 5 -9 13 -20 16 -11 4 -18 11 -15
16 4 5 -1 9 -10 9 -9 0 -13 5 -10 10 3 6 0 10 -7 10 -7 0 -29 15 -48 33 -72
69 -248 160 -380 198 -25 7 -49 15 -54 17 -5 3 -35 5 -67 6 -33 1 -59 3 -59 6
0 3 -16 5 -35 5 -20 0 -42 -2 -50 -5z"/>
</g>
</svg>
